<?xml version="1.0" standalone="no"?>
<!DOCTYPE svg PUBLIC "-//W3C//DTD SVG 20010904//EN"
 "http://www.w3.org/TR/2001/REC-SVG-20010904/DTD/svg10.dtd">
<svg version="1.0" xmlns="http://www.w3.org/2000/svg"
 width="512.000000pt" height="512.000000pt" viewBox="0 0 512.000000 512.000000"
 preserveAspectRatio="xMidYMid meet">
<metadata>
Created by potrace 1.14, written by Peter Selinger 2001-2017
</metadata>
<g transform="translate(0.000000,512.000000) scale(0.100000,-0.100000)"
fill="#000000" stroke="none">
<path d="M72 4844 l-22 -15 0 -929 0 -930 25 -16 c23 -15 27 -15 50 0 l25 16
0 890 0 890 485 0 484 0 177 -257 c97 -142 184 -264 192 -270 13 -10 377 -13
1749 -13 l1733 0 0 -1920 0 -1920 -2410 0 -2410 0 0 1128 c0 864 -3 1131 -12
1140 -7 7 -24 12 -38 12 -14 0 -31 -5 -38 -12 -9 -9 -12 -285 -12 -1179 l0
-1168 22 -15 c20 -14 273 -16 2488 -16 2215 0 2468 2 2488 16 l22 15 0 2269 0
2269 -22 15 c-20 14 -273 16 -2488 16 -2215 0 -2468 -2 -2488 -16z"/>
<path d="M466 4504 c-21 -21 -20 -47 2 -67 16 -15 48 -17 243 -17 241 0 249 2
249 50 0 48 -8 50 -251 50 -194 0 -230 -2 -243 -16z"/>
<path d="M1220 3766 c-433 -91 -757 -453 -788 -879 -24 -322 76 -588 301 -804
139 -134 296 -216 487 -255 125 -26 315 -21 440 11 170 45 324 133 451 260
203 204 301 463 286 755 -8 146 -23 196 -64 216 -35 17 -64 83 -44 103 15 15
14 60 -1 75 -7 7 -23 12 -38 12 -31 0 -75 67 -59 91 18 29 8 50 -57 119 -123
130 -276 224 -450 276 -76 22 -112 27 -244 30 -106 2 -176 -1 -220 -10z"/>
<path d="M2722 3768 c-9 -9 -12 -360 -12 -1520 0 -1480 0 -1507 19 -1518 30
-15 933 -14 949 2 17 17 15 64 -4 82 -14 14 -67 16 -435 16 l-419 0 0 180 0
179 454 3 c441 3 455 4 483 24 15 11 38 40 51 65 22 41 23 53 20 199 -4 181
-14 210 -88 248 -44 22 -48 22 -482 22 l-438 0 0 110 0 110 748 0 748 0 44 23
c74 37 84 66 88 247 3 146 2 158 -20 199 -13 25 -36 54 -51 65 -28 21 -39 21
-793 24 l-764 2 0 110 0 109 448 3 c439 3 448 3 482 25 68 42 75 66 75 260 0
188 -3 198 -69 247 -27 20 -41 21 -482 24 l-454 3 0 212 c0 176 -3 216 -16
235 -17 24 -62 30 -82 10z"/>
<path d="M62 2838 c-21 -21 -14 -66 13 -84 23 -15 27 -15 50 0 17 11 25 26 25
44 0 35 -16 52 -50 52 -14 0 -31 -5 -38 -12z"/>
<path d="M690 1630 c-24 -24 -25 -38 -4 -68 l15 -22 705 0 c467 0 712 3 725
10 23 13 26 62 3 84 -14 14 -93 16 -720 16 -691 0 -704 0 -724 -20z"/>
<path d="M686 1358 c-21 -30 -20 -44 4 -68 20 -20 33 -20 724 -20 627 0 706 2
720 16 23 22 20 71 -3 84 -13 7 -258 10 -725 10 l-705 0 -15 -22z"/>
<path d="M684 815 c-20 -30 -10 -63 23 -76 14 -5 305 -9 711 -9 606 0 690 2
710 16 24 17 30 62 10 82 -9 9 -184 12 -725 12 l-713 0 -16 -25z"/>
<path d="M3812 814 c-24 -17 -30 -62 -10 -82 7 -7 24 -12 38 -12 33 0 50 17
50 51 0 29 -23 59 -43 59 -7 0 -23 -7 -35 -16z"/>
<path d="M4012 814 c-24 -17 -30 -62 -10 -82 17 -17 659 -17 676 0 17 17 15
64 -4 82 -23 24 -628 24 -662 0z"/>
</g>
</svg>
